<?xml version="1.0" encoding="UTF-8"?>
<svg width="60px" height="26px" viewBox="0 0 60 26" version="1.1" xmlns="http://www.w3.org/2000/svg" xmlns:xlink="http://www.w3.org/1999/xlink">
    <!-- Generator: Sketch 43.2 (39069) - http://www.bohemiancoding.com/sketch -->
    <title>Complete_1823_wide@2x</title>
    <desc>Created with Sketch.</desc>
    <defs></defs>
    <g id="Complete-1823-Button" stroke="none" stroke-width="1" fill="none" fill-rule="evenodd">
        <g id="Artboard" transform="translate(-295.000000, -547.000000)">
            <g id="Complete_1823_wide" transform="translate(295.000000, 547.000000)">
                <g id="1823-check" fill="#1A936D">
                    <rect id="Rectangle-3" x="0" y="0" width="60" height="26" rx="3"></rect>
                </g>
                <path d="M16.8074289,20.8802395 L13.1585023,20.8802395 L13.1585023,16.245509 C13.1585023,15.6826319 13.1767013,15.167667 13.2130997,14.7005988 C12.9886426,14.8802404 12.709592,15.0678633 12.3759395,15.2634731 L10.8654113,16.0838323 L9,14.5748503 L13.5679829,12.1257485 L16.8074289,12.1257485 L16.8074289,20.8802395 Z M23.1729524,12 C24.5742928,12 25.6647134,12.1856269 26.444247,12.5568862 C27.2237805,12.9281456 27.6135414,13.4550864 27.6135414,14.1377246 C27.6135414,14.6008007 27.4300353,15.0069843 27.0630175,15.3562874 C26.6959998,15.7055906 26.1151499,16.0099787 25.3204504,16.2694611 C26.3032086,16.6367284 26.9962854,17.0029922 27.3997015,17.3682635 C27.8031177,17.7335348 28.0048228,18.1277424 28.0048228,18.5508982 C28.0048228,19.3293452 27.5771474,19.9321336 26.7217838,20.3592814 C25.8664201,20.7864293 24.6713556,21 23.1365542,21 C21.5714207,21 20.373323,20.7914193 19.542225,20.3742515 C18.711127,19.9570837 18.2955843,19.3572893 18.2955843,18.5748503 C18.2955843,18.0678617 18.480607,17.6357303 18.8506579,17.2784431 C19.2207088,16.9211559 19.8425064,16.5968078 20.7160692,16.3053892 C20.0123658,15.9940104 19.4982454,15.6596824 19.1736925,15.3023952 C18.8491397,14.945108 18.6868657,14.5528963 18.6868657,14.1257485 C18.6868657,13.4550865 19.0842095,12.9331356 19.878909,12.5598802 C20.6736086,12.1866249 21.771612,12 23.1729524,12 Z M21.5896277,18.4790419 C21.5896277,18.7265481 21.7230867,18.925149 21.9900087,19.0748503 C22.2569307,19.2245516 22.626976,19.2994012 23.1001559,19.2994012 C24.1678438,19.2994012 24.7016798,19.0419187 24.7016798,18.5269461 C24.7016798,18.3313363 24.5849032,18.1387235 24.3513464,17.9491018 C24.1177897,17.7594801 23.7007304,17.5469074 23.1001559,17.3113772 C22.5602455,17.4990029 22.1735178,17.6876238 21.9399611,17.8772455 C21.7064043,18.0668672 21.5896277,18.267464 21.5896277,18.4790419 Z M23.1547533,13.7065868 C22.8453665,13.7065868 22.5845148,13.7654685 22.3721905,13.8832335 C22.1598662,14.0009986 22.0537056,14.1536917 22.0537056,14.3413174 C22.0537056,14.6846325 22.4085852,14.9880226 23.118355,15.251497 C23.5490701,15.0878235 23.8432865,14.9381244 24.0010131,14.8023952 C24.1587397,14.666666 24.2376018,14.5129749 24.2376018,14.3413174 C24.2376018,14.1496996 24.1314413,13.9960086 23.919117,13.8802395 C23.7067927,13.7644705 23.4520073,13.7065868 23.1547533,13.7065868 Z M38.4705629,20.8802395 L28.8159218,20.8802395 L28.8159218,19.3233533 L32.0644674,17.1616766 C32.9926279,16.5229509 33.5992597,16.0868275 33.8843809,15.8532934 C34.1695021,15.6197593 34.368174,15.4191625 34.4804026,15.251497 C34.5926311,15.0838315 34.6487446,14.9081846 34.6487446,14.7245509 C34.6487446,14.4970049 34.5365177,14.3173659 34.3120606,14.1856287 C34.0876034,14.0538916 33.7721549,13.988024 33.3657055,13.988024 C32.9471234,13.988024 32.5239977,14.0668655 32.0963159,14.2245509 C31.6686341,14.3822363 31.1848452,14.6147689 30.6449349,14.9221557 L28.6703287,13.4011976 C29.3558329,12.998002 29.9321331,12.7095817 30.3992466,12.5359281 C30.86636,12.3622746 31.3744141,12.2295414 31.9234241,12.1377246 C32.4724341,12.0459077 33.0896819,12 33.7751861,12 C34.6366161,12 35.4055219,12.0997994 36.0819264,12.2994012 C36.758331,12.499003 37.2830675,12.7834313 37.6561516,13.1526946 C38.0292357,13.5219579 38.215775,13.9361254 38.215775,14.3952096 C38.215775,14.7385247 38.1505621,15.0558868 38.0201343,15.3473054 C37.8897065,15.638724 37.6880015,15.9251483 37.4150131,16.2065868 C37.1420247,16.4880254 36.7795622,16.7844296 36.3276148,17.0958084 C35.8756673,17.4071872 34.9126394,17.9979996 33.4385021,18.8682635 L33.4385021,18.9281437 L38.4705629,18.9281437 L38.4705629,20.8802395 Z M48.6087186,14.0239521 C48.6087186,14.566869 48.3569664,15.0329322 47.8534545,15.4221557 C47.3499426,15.8113792 46.6219845,16.0938115 45.6695583,16.2694611 L45.6695583,16.3053892 C47.8898639,16.4890229 49,17.1796347 49,18.3772455 C49,19.1916208 48.5101448,19.832333 47.5304199,20.2994012 C46.5506949,20.7664694 45.1903231,21 43.4492638,21 C42.7334276,21 42.0706824,20.9660682 41.4610083,20.8982036 C40.8513343,20.830339 40.1916222,20.7065877 39.4818524,20.5269461 L39.4818524,18.5628743 C40.0642277,18.758484 40.6572102,18.9031931 41.2608179,18.997006 C41.8644255,19.0908188 42.4210102,19.1377246 42.9305885,19.1377246 C43.7192216,19.1377246 44.2940052,19.064871 44.6549565,18.9191617 C45.0159078,18.7734524 45.1963808,18.5449117 45.1963808,18.2335329 C45.1963808,17.9940108 45.1023529,17.8093819 44.9142942,17.6796407 C44.7262355,17.5498996 44.4229197,17.4520961 44.0043375,17.3862275 C43.5857553,17.320359 43.0397867,17.2874251 42.3664153,17.2874251 L41.5474542,17.2874251 L41.5474542,15.508982 L42.3846144,15.508982 C44.2106034,15.508982 45.1235843,15.2015999 45.1235843,14.5868263 C45.1235843,14.3552883 44.9886087,14.1836333 44.7186535,14.0718563 C44.4486983,13.9600793 44.0862358,13.9041916 43.6312552,13.9041916 C42.781958,13.9041916 41.9023419,14.0918145 40.9923806,14.4670659 L39.5000516,12.8862275 C40.203755,12.5668647 40.9241302,12.339322 41.6611988,12.2035928 C42.3982675,12.0678636 43.2430022,12 44.1954284,12 C45.5725031,12 46.6523077,12.1796389 47.4348744,12.5389222 C48.2174411,12.8982054 48.6087186,13.3932104 48.6087186,14.0239521 Z" id="1823" fill="#FFFFFF"></path>
                <path d="M11.8128127,6.19136213 C11.4377691,6.19136213 11.1451863,6.33205839 10.9350556,6.61345515 C10.7249248,6.89485191 10.6198609,7.28283252 10.6198609,7.77740864 C10.6198609,8.80554224 11.0467658,9.31960133 11.9005884,9.31960133 C12.1585971,9.31960133 12.4086224,9.28671129 12.6506718,9.22093023 C12.8927212,9.15514917 13.1360969,9.07596946 13.3808062,8.9833887 L13.3808062,10.2039867 C12.8940475,10.4013299 12.3434599,10.5 11.7290268,10.5 C10.8486054,10.5 10.1736701,10.2661153 9.70420063,9.79833887 C9.2347312,9.33056245 9,8.65448947 9,7.77009967 C9,7.2170515 9.11370831,6.73100985 9.34112835,6.31196013 C9.56854839,5.89291042 9.89570915,5.57070988 10.3226204,5.34534884 C10.7495317,5.1199878 11.2515772,5.00730897 11.8287719,5.00730897 C12.4591643,5.00730897 13.0616189,5.13277837 13.6361537,5.38372093 L13.1533873,6.52026578 C12.9379367,6.42768503 12.7224894,6.34972346 12.5070388,6.28637874 C12.2915883,6.22303401 12.0601819,6.19136213 11.8128127,6.19136213 Z M19.461014,7.74817276 C19.461014,8.64718057 19.2202982,9.33056245 18.7388593,9.79833887 C18.2574204,10.2661153 17.5525618,10.5 16.6242625,10.5 C15.7092626,10.5 15.0077288,10.2648971 14.5196402,9.79468439 C14.0315516,9.32447162 13.7875109,8.6398716 13.7875109,7.74086379 C13.7875109,6.85160131 14.0302217,6.17248297 14.5156504,5.70348837 C15.0010791,5.23449378 15.7066027,5 16.6322421,5 C17.5605414,5 18.2640701,5.23266655 18.7428491,5.69800664 C19.2216281,6.16334673 19.461014,6.8467286 19.461014,7.74817276 Z M15.4472699,7.74817276 C15.4472699,8.78117903 15.8395969,9.29767442 16.6242625,9.29767442 C17.023245,9.29767442 17.3191526,9.17220502 17.5119942,8.92126246 C17.7048357,8.6703199 17.801255,8.27929391 17.801255,7.74817276 C17.801255,7.21461527 17.7035058,6.82054391 17.5080044,6.56594684 C17.3125029,6.31134978 17.0205851,6.18405316 16.6322421,6.18405316 C15.8422567,6.18405316 15.4472699,6.70542114 15.4472699,7.74817276 Z M22.7044703,10.4269103 L21.5115186,6.57873754 L21.4756103,6.57873754 C21.5314679,7.2341118 21.5593962,7.7432983 21.5593962,8.10631229 L21.5593962,10.4269103 L20.1629644,10.4269103 L20.1629644,5.08405316 L22.261602,5.08405316 L23.4784926,8.87740864 L23.510411,8.87740864 L24.7033628,5.08405316 L26.8059902,5.08405316 L26.8059902,10.4269103 L25.3576908,10.4269103 L25.3576908,8.08438538 C25.3576908,7.9625686 25.3596857,7.82735401 25.3636756,7.67873754 C25.3676654,7.53012107 25.3856193,7.16589437 25.4175379,6.58604651 L25.3816297,6.58604651 L24.2046371,10.4269103 L22.7044703,10.4269103 Z M31.944604,6.7833887 C31.944604,7.38029091 31.7524303,7.8413605 31.3680771,8.1666113 C30.9837239,8.49186209 30.4377911,8.65448505 29.730262,8.65448505 L29.2873937,8.65448505 L29.2873937,10.4269103 L27.7114206,10.4269103 L27.7114206,5.08405316 L29.730262,5.08405316 C30.4670498,5.08405316 31.0202972,5.23144925 31.390021,5.52624585 C31.7597448,5.82104245 31.944604,6.24008588 31.944604,6.7833887 Z M29.2873937,7.47774086 L29.5746596,7.47774086 C29.8113893,7.47774086 29.9995732,7.41683339 30.1392171,7.29501661 C30.278861,7.17319983 30.3486819,7.0050952 30.3486819,6.79069767 C30.3486819,6.43012001 30.1305747,6.24983389 29.6943538,6.24983389 L29.2873937,6.24983389 L29.2873937,7.47774086 Z M32.5228704,10.4269103 L32.5228704,5.08405316 L34.0988434,5.08405316 L34.0988434,9.26112957 L36.3451038,9.26112957 L36.3451038,10.4269103 L32.5228704,10.4269103 Z M40.390511,10.4269103 L36.92736,10.4269103 L36.92736,5.08405316 L40.390511,5.08405316 L40.390511,6.24252492 L38.5033331,6.24252492 L38.5033331,7.08305648 L40.2508678,7.08305648 L40.2508678,8.24152824 L38.5033331,8.24152824 L38.5033331,9.25016611 L40.390511,9.25016611 L40.390511,10.4269103 Z M43.6339673,10.4269103 L42.0579942,10.4269103 L42.0579942,6.26445183 L40.6336337,6.26445183 L40.6336337,5.08405316 L45.054338,5.08405316 L45.054338,6.26445183 L43.6339673,6.26445183 L43.6339673,10.4269103 Z M49,10.4269103 L45.536849,10.4269103 L45.536849,5.08405316 L49,5.08405316 L49,6.24252492 L47.1128221,6.24252492 L47.1128221,7.08305648 L48.8603568,7.08305648 L48.8603568,8.24152824 L47.1128221,8.24152824 L47.1128221,9.25016611 L49,9.25016611 L49,10.4269103 Z" id="COMPLETE" fill="#FFFFFF"></path>
            </g>
        </g>
    </g>
</svg>